<svg xmlns="http://www.w3.org/2000/svg" width="17.875" height="15.531" viewBox="0 0 17.875 15.531">
  <defs>
    <style>
      .cls-1 {
        fill: #243f4d;
        fill-rule: evenodd;
      }
    </style>
  </defs>
  <path class="cls-1" d="M9.913,16.244a0.706,0.706,0,0,1-.279-0.056c-0.353-.15-8.65-3.749-8.65-10.76a4.818,4.818,0,0,1,8.93-2.4A4.818,4.818,0,0,1,18.842,5.4c0,7.034-8.3,10.634-8.649,10.783A0.709,0.709,0,0,1,9.913,16.244ZM5.8,2.106A3.424,3.424,0,0,0,2.393,5.452c0,5.407,6.125,8.662,7.52,9.334,1.4-.672,7.52-3.93,7.52-9.358a3.409,3.409,0,0,0-6.816.024,0.7,0.7,0,0,1-.7.669h0a0.7,0.7,0,0,1-.7-0.669A3.424,3.424,0,0,0,5.8,2.106Z" transform="translate(-0.969 -0.719)"/>
</svg>
